<?xml version="1.0" standalone="no"?>
<!DOCTYPE svg PUBLIC "-//W3C//DTD SVG 20010904//EN"
 "http://www.w3.org/TR/2001/REC-SVG-20010904/DTD/svg10.dtd">
<svg version="1.0" xmlns="http://www.w3.org/2000/svg"
 width="512.000000pt" height="512.000000pt" viewBox="0 0 512.000000 512.000000"
 preserveAspectRatio="xMidYMid meet">

<g transform="translate(0.000000,512.000000) scale(0.100000,-0.100000)"
fill="#000000" stroke="none">
<path d="M505 4723 c-46 -24 -66 -45 -86 -88 -17 -37 -19 -73 -19 -445 0 -450
1 -456 69 -513 47 -39 90 -47 269 -47 l162 0 0 -75 0 -75 -347 0 c-344 0 -349
0 -399 -24 -98 -46 -154 -142 -154 -266 0 -81 26 -129 79 -145 31 -9 33 -12
27 -45 -3 -19 -6 -418 -6 -887 l0 -851 -35 -21 c-53 -31 -65 -70 -65 -208 0
-99 3 -123 20 -150 36 -59 60 -68 206 -71 l132 -4 11 -45 c31 -123 140 -263
250 -322 147 -78 350 -82 494 -10 122 62 218 174 258 304 l23 75 702 2 c674 3
703 4 723 22 25 22 28 73 7 102 -14 18 -36 19 -722 24 l-707 5 -12 50 c-6 28
-15 60 -19 73 l-7 22 1141 0 c1083 0 1140 -1 1131 -18 -5 -9 -14 -43 -21 -75
l-13 -57 -239 0 c-225 0 -239 -1 -258 -20 -27 -27 -26 -81 1 -106 19 -17 43
-19 262 -24 l241 -5 8 -39 c16 -77 69 -169 137 -237 103 -102 217 -149 366
-149 240 0 426 133 502 359 l22 66 193 5 c214 6 230 10 268 73 17 27 20 51 20
150 0 130 -12 175 -54 202 l-26 17 0 159 0 159 26 16 c47 31 54 61 54 221 0
129 -3 152 -20 180 -10 17 -28 37 -39 43 -16 8 -21 21 -21 51 0 48 -29 109
-67 138 -14 12 -64 39 -110 61 l-83 39 0 98 c0 83 -4 106 -22 143 -28 54 -89
99 -145 107 l-41 5 -31 147 c-50 235 -51 207 8 214 94 11 131 58 131 165 0
116 -59 214 -154 258 l-51 24 -432 0 -433 0 0 75 0 75 143 0 c158 0 202 8 248
47 68 57 69 63 69 511 0 340 -2 408 -15 439 -20 48 -41 71 -87 94 -36 18 -84
19 -1491 19 -1372 0 -1455 -1 -1470 -17 -29 -33 -31 -68 -4 -99 l25 -29 146
-3 146 -3 -2 -162 -3 -162 -383 -3 -382 -2 2 162 3 163 65 3 c85 3 106 8 130
32 26 26 25 60 -1 94 -20 25 -24 26 -117 26 -69 -1 -106 -5 -127 -17z m1115
-378 l0 -245 -75 0 -75 0 0 245 0 245 75 0 75 0 0 -245z m1100 80 l0 -165
-475 0 -475 0 0 165 0 165 475 0 475 0 0 -165z m300 -80 l0 -245 -70 0 -70 0
0 245 0 245 70 0 70 0 0 -245z m894 229 c3 -9 6 -83 6 -165 l0 -149 -370 0
-370 0 0 165 0 165 364 0 c323 0 365 -2 370 -16z m-2596 -626 l-3 -163 -363
-3 c-239 -1 -370 1 -382 8 -19 10 -20 22 -20 165 l0 155 385 0 385 0 -2 -162z
m1402 -3 l0 -165 -475 0 -475 0 0 165 0 165 475 0 475 0 0 -165z m1200 10 c0
-142 -1 -155 -19 -165 -13 -6 -148 -10 -370 -10 l-351 0 0 165 0 165 370 0
370 0 0 -155z m-2302 -87 l-3 -83 -72 -3 -73 -3 0 86 0 85 75 0 76 0 -3 -82z
m1402 -3 l0 -85 -70 0 -70 0 0 85 0 85 70 0 70 0 0 -85z m-1820 -310 l0 -75
-75 0 -75 0 0 75 0 75 75 0 75 0 0 -75z m1960 0 l0 -75 -905 0 -905 0 0 75 0
75 905 0 905 0 0 -75z m300 0 l0 -75 -75 0 -75 0 0 75 0 75 75 0 75 0 0 -75z
m1018 -241 c29 -20 52 -66 52 -104 l0 -30 -2190 0 -2190 0 0 30 c0 38 23 84
52 104 20 14 237 16 2138 16 1901 0 2118 -2 2138 -16z m-3958 -596 c0 -306 1
-314 23 -353 12 -21 42 -53 65 -70 l44 -30 1096 -3 c760 -2 1108 0 1134 8 49
14 94 53 121 104 21 39 22 55 25 349 l4 307 189 0 189 0 0 -267 c0 -148 4
-295 10 -327 12 -72 47 -121 110 -153 44 -23 50 -23 422 -23 l377 0 11 -39
c11 -42 55 -87 96 -97 14 -4 64 -5 113 -2 71 3 96 9 132 30 l44 26 83 -39 c70
-32 82 -41 82 -62 0 -22 -7 -27 -51 -37 -66 -16 -142 -86 -158 -145 -24 -89
-7 -191 42 -250 33 -41 96 -74 140 -75 l27 0 0 -155 0 -155 -194 0 -195 0 -46
40 c-90 78 -207 120 -339 120 -122 0 -233 -40 -334 -119 l-51 -41 -1237 0
-1236 0 -46 40 c-181 160 -483 160 -674 -1 l-47 -40 -118 3 -118 3 -3 859 c-2
757 0 862 13 883 15 22 21 23 135 23 l120 0 0 -312z m720 2 l0 -310 -266 0
c-164 0 -273 4 -285 10 -18 10 -19 24 -19 310 l0 300 285 0 285 0 0 -310z
m870 0 l0 -310 -360 0 -360 0 0 310 0 310 360 0 360 0 0 -310z m760 12 c0
-218 -3 -301 -12 -310 -9 -9 -89 -12 -300 -12 l-288 0 0 310 0 310 300 0 300
0 0 -298z m1468 286 c5 -7 26 -89 46 -183 29 -132 34 -171 24 -174 -25 -8 -65
-60 -72 -92 -3 -17 -6 -60 -6 -95 l0 -64 -368 0 c-273 0 -371 3 -380 12 -9 9
-12 92 -12 310 l0 298 379 0 c291 0 381 -3 389 -12z m273 -508 c17 -9 19 -22
19 -107 0 -121 -8 -133 -92 -133 l-58 0 0 125 0 125 56 0 c30 0 64 -5 75 -10z
m359 -700 l0 -90 -55 0 c-72 0 -95 21 -95 85 0 65 31 95 100 95 l50 0 0 -90z
m-3925 -579 c131 -65 198 -178 199 -336 1 -83 -2 -96 -32 -157 -74 -152 -236
-236 -397 -207 -126 23 -242 114 -287 229 -31 76 -30 202 1 281 39 102 133
185 240 216 28 8 79 11 129 9 68 -3 95 -10 147 -35z m3230 5 c145 -66 223
-199 213 -367 -6 -95 -37 -164 -105 -232 -147 -148 -382 -148 -528 -2 -158
157 -140 432 37 562 107 78 262 94 383 39z m-3890 -148 c-4 -13 -12 -45 -19
-73 l-12 -50 -102 -3 -102 -3 0 76 0 75 121 0 c121 0 121 0 114 -22z m4585
-53 l0 -75 -165 0 -164 0 -7 38 c-4 20 -13 54 -20 75 l-13 37 184 0 185 0 0
-75z"/>
<path d="M3610 2112 c-19 -9 -45 -33 -58 -52 -22 -32 -23 -43 -20 -126 3 -81
7 -98 34 -140 18 -30 48 -60 78 -79 l49 -30 196 -3 c217 -4 246 1 305 50 58
48 86 116 86 211 0 101 -18 143 -74 168 -37 17 -70 19 -301 19 -228 0 -264 -2
-295 -18z m520 -182 c0 -41 -5 -56 -25 -75 -24 -25 -27 -25 -197 -25 -120 1
-178 4 -189 13 -25 19 -39 53 -39 96 l0 41 225 0 225 0 0 -50z"/>
<path d="M475 1995 c-14 -13 -25 -36 -25 -50 0 -14 11 -37 25 -50 24 -25 26
-25 203 -25 166 0 181 2 206 21 33 26 36 79 6 109 -19 19 -33 20 -205 20 -184
0 -186 0 -210 -25z"/>
<path d="M475 1785 c-14 -13 -25 -36 -25 -50 0 -14 11 -37 25 -50 24 -25 26
-25 208 -25 171 0 185 1 205 20 29 27 29 83 2 110 -19 19 -33 20 -205 20 -184
0 -186 0 -210 -25z"/>
<path d="M763 1090 c-74 -42 -108 -103 -108 -190 1 -136 86 -220 222 -220 105
1 186 60 213 156 55 194 -152 354 -327 254z m164 -142 c40 -37 27 -96 -26
-117 -24 -10 -34 -10 -59 3 -47 24 -55 66 -21 110 26 33 73 35 106 4z"/>
<path d="M4030 1105 c-157 -71 -180 -288 -42 -388 37 -27 54 -32 116 -35 59
-3 81 0 113 16 155 79 166 293 22 389 -52 34 -153 43 -209 18z m140 -155 c26
-26 26 -81 0 -105 -46 -42 -123 -7 -123 54 0 64 78 96 123 51z"/>
</g>
</svg>
